<?xml version="1.0" encoding="UTF-8" standalone="no"?>
<svg width="32px" height="32px" viewBox="0 0 32 32" version="1.1" xmlns="http://www.w3.org/2000/svg" xmlns:xlink="http://www.w3.org/1999/xlink">
    <!-- Generator: Sketch 39.1 (31720) - http://www.bohemiancoding.com/sketch -->
    <title>document</title>
    <desc>Created with Sketch.</desc>
    <defs></defs>
    <g id="Page-1" stroke="none" stroke-width="1" fill="none" fill-rule="evenodd">
        <g id="document" fill="#839197">
            <path d="M18.5,11 C18.2238576,11 18,10.7761424 18,10.5 L18,5.2071 C18.000023,5.00489295 18.1218361,4.82260537 18.3086496,4.74522059 C18.4954631,4.6678358 18.7104964,4.71058961 18.8535,4.85355 L24.1465,10.1465 C24.289454,10.2894971 24.332211,10.5045183 24.254839,10.6913273 C24.177467,10.8781362 23.9951979,10.9999568 23.793,11 L18.5,11 L18.5,11 Z M25,13.5 L25,26.5 C25,27.3284271 24.3284271,28 23.5,28 L8.5,28 C7.67157288,28 7,27.3284271 7,26.5 L7,5.5 C7,4.67157288 7.67157288,4 8.5,4 L15.5,4 C16.3284271,4 17,4.67157288 17,5.5 L17,10.5 C17,11.3284271 17.6715729,12 18.5,12 L23.5,12 C24.3284271,12 25,12.6715729 25,13.5 L25,13.5 Z" id="Shape"></path>
        </g>
    </g>
</svg>