<?xml version="1.0" encoding="UTF-8" standalone="no"?>
<svg width="32px" height="32px" viewBox="0 0 32 32" version="1.1" xmlns="http://www.w3.org/2000/svg" xmlns:xlink="http://www.w3.org/1999/xlink">
    <!-- Generator: Sketch 3.8.2 (29753) - http://www.bohemiancoding.com/sketch -->
    <title>light-bulb</title>
    <desc>Created with Sketch.</desc>
    <defs></defs>
    <g id="Page-1" stroke="none" stroke-width="1" fill="none" fill-rule="evenodd">
        <path d="M19.13655,20.2963 C18.84565,21.2913 18.6088,22.00705 17.60155,22.00705 L13.426,22.00705 C12.4186,22.00705 12.1818,21.2912 11.891,20.2963 C10.91975,16.97505 8.05385,15.87325 8.016,11.58325 C7.98902938,8.88655928 9.41223599,6.38309298 11.7432473,5.02690181 C14.0742586,3.67071065 16.9539914,3.67071065 19.2850027,5.02690181 C21.616014,6.38309298 23.0392206,8.88655928 23.01225,11.58325 C22.97375,15.87325 20.10785,16.975 19.13655,20.2963 L19.13655,20.2963 Z M13.012,23.00715 L18.0154,23.00715 C18.5677952,23.00715 19.0156,23.4549548 19.0156,24.00735 C19.0156,24.5597452 18.5677952,25.00755 18.0154,25.00755 L13.012,25.00755 C12.4596048,25.00755 12.0118,24.5597452 12.0118,24.00735 C12.0118,23.4549548 12.4596048,23.00715 13.012,23.00715 L13.012,23.00715 Z M13.59745,26.00765 L17.43,26.00765 C17.585324,26.007703 17.7342653,26.0694561 17.8440585,26.1793243 C17.9538517,26.2891925 18.0155031,26.438176 18.01545,26.5935 C18.0154875,26.8587624 17.9101669,27.1131792 17.72265,27.3008 L17.3088,27.71505 C17.1214265,27.9025515 16.8672267,28.007915 16.60215,28.00795 L14.4254,28.00795 C14.1603027,28.0079447 13.9060765,27.9025777 13.7187,27.71505 L13.3048,27.3008 C13.1173435,27.1131389 13.0120338,26.8587482 13.012,26.5935 C13.0119171,26.2700659 13.2740159,26.007788 13.59745,26.00765 L13.59745,26.00765 Z" id="Shape" fill="#839197"></path>
    </g>
</svg>